<svg xmlns="http://www.w3.org/2000/svg" viewBox="0 0 128 128">
  <defs>
    <linearGradient id="bg" x1="0%" x2="100%" y1="0%" y2="100%">
      <stop offset="0%" stop-color="#51545d" />
      <stop offset="100%" stop-color="#c15762" />
    </linearGradient>
  </defs>
  <rect width="128" height="128" rx="28" fill="url(#bg)" />
  <circle cx="64" cy="64" r="26" fill="#ffffff" fill-opacity="0.18" />
  <path
    d="M42 64c0-12.15 9.85-22 22-22 7.72 0 14.52 3.98 18.45 10h-11.2A11.98 11.98 0 0 0 64 49c-8.28 0-15 6.72-15 15s6.72 15 15 15c4.54 0 8.61-2.02 11.36-5.22h-9.82V64h22.46c0 14.36-10.83 25-24 25-12.15 0-22-9.85-22-22Z"
    fill="#ffffff"
  />
</svg>
